<svg width="100" height="100" viewBox="0 0 100 100" fill="none" xmlns="http://www.w3.org/2000/svg">
<path d="M13.3398 3.41797C9.90234 4.35547 7.14843 7.22656 6.44531 10.6445C6.30859 11.3281 6.25 13.3203 6.28906 16.0547C6.34765 20.2344 6.36718 20.4492 6.83593 21.3867C7.4414 22.6172 8.67187 23.8477 9.72656 24.3164C10.1758 24.5312 10.5469 24.7852 10.5469 24.8828C10.5469 25 10.1367 26.4062 9.66797 28.0273C7.10937 36.4648 5.11718 46.3477 4.12109 55.3711C3.45703 61.3477 3.26172 64.9219 3.24218 70.8984C3.22265 75.9961 3.26172 76.7773 3.57422 77.6758C3.76953 78.2422 3.98437 78.7109 4.0625 78.7109C4.12109 78.7109 4.76562 78.4375 5.46875 78.1055L6.77734 77.5L6.5039 76.6016C6.26953 75.8398 6.23047 74.6875 6.32812 70.0195C6.48437 61.8164 7.03125 55.6641 8.32031 47.8516C9.41406 41.1133 11.5234 32.2656 13.3594 26.5625L13.8281 25.0977L30.957 25.0391C47.207 25 48.0664 25.0195 47.9687 25.332C47.9102 25.5273 47.6562 26.3867 47.3828 27.2461C46.7383 29.3555 45.4297 34.2188 44.8437 36.6797C44.5117 38.1055 44.4336 38.7109 44.5898 38.7695C44.7266 38.8086 45.4102 38.9648 46.1328 39.1211L47.4414 39.4141L47.8711 37.5195C48.3594 35.3125 50.1758 28.6523 50.8594 26.5625L51.3281 25.0977L53.8477 24.9805C56.0352 24.8828 56.4648 24.8047 57.3437 24.3555C58.8086 23.6133 59.4336 23.0078 60.1758 21.6406L60.8398 20.4102L60.8984 16.9531L60.9766 13.4961L60.4687 13.0078L59.9805 12.5H55.7422H51.5234L51.6602 11.5625C51.8164 10.4102 52.8125 8.53516 53.5742 7.89062C53.8867 7.61719 54.6094 7.16797 55.1562 6.875C56.5039 6.17188 59.1797 6.11328 60.5664 6.75781C61.7969 7.32422 63.0273 8.47656 63.5742 9.55078C63.9648 10.332 65.9766 17.4414 67.1875 22.2656C67.4219 23.1836 67.6758 24.2383 67.793 24.6289L67.9688 25.3516L69.2969 25.0586C70.0195 24.9023 70.6836 24.6875 70.7812 24.6094C71.1328 24.2773 67.2266 9.82422 66.3281 8.10547C65.0977 5.76172 62.6172 3.88672 60 3.33984C59.2773 3.18359 52.2461 3.125 36.6602 3.14453C18.1055 3.14453 14.1797 3.20312 13.3398 3.41797ZM50.0977 7.22656C49.7461 7.75391 49.2383 8.71094 48.9844 9.31641C48.5547 10.3906 48.5352 10.6641 48.5352 15.4297C48.5352 19.8047 48.5742 20.4883 48.8867 21.0352C49.0625 21.3867 49.2187 21.7188 49.2187 21.7773C49.2187 21.8359 40.7031 21.8555 30.3125 21.8359L11.3867 21.7773L10.6641 21.2109C9.41406 20.2734 9.33593 19.8438 9.41406 15.0586C9.47265 10.918 9.49218 10.8203 10 9.84375C10.293 9.29688 10.7422 8.59375 11.0156 8.26172C11.543 7.63672 13.2227 6.66016 14.1406 6.42578C14.4727 6.34766 22.8516 6.28906 32.7539 6.26953L50.7617 6.25L50.0977 7.22656ZM57.7734 17.7539C57.7148 20.0586 57.5391 20.5078 56.3672 21.3672C55.6055 21.9336 53.7695 21.9336 53.0078 21.3672C51.8359 20.5078 51.6602 20.0586 51.6016 17.7539L51.5234 15.625H54.6875H57.8516L57.7734 17.7539Z" fill="#523F38"/>
<path d="M84.8242 8.59375C84.1406 8.92578 83.3203 9.55078 82.9688 9.96094C82.3438 10.6836 70.3516 30.1953 69.5703 31.7383C69.2383 32.4023 68.9844 32.6172 68.0273 32.9883C62.9883 35.0195 57.9102 38.9648 54.4531 43.5547C53.2422 45.1758 52.3047 46.8164 49.9805 51.4062L47.0703 57.2266L48.418 57.9102L49.7852 58.5938L52.3438 53.5352C56.0352 46.25 57.8516 43.6523 61.4062 40.6836C63.4961 38.9258 65.0977 37.8711 67.3633 36.7188C68.6523 36.0742 69.043 35.957 69.1602 36.1719C69.2578 36.3086 69.3359 36.5039 69.3359 36.6016C69.3359 36.6797 68.4375 37.6562 67.3242 38.75C63.8281 42.168 61.0742 45.957 58.418 50.918C56.2891 54.9219 53.8477 59.7656 53.9258 59.8438C54.2969 60.1758 56.5234 61.1328 56.6406 60.9961C56.7383 60.918 57.9883 58.5547 59.4336 55.7422C63.4961 47.8711 65.2734 45.2539 69.1602 41.3477L71.2695 39.2383L71.8164 39.5703C72.1094 39.7656 72.4023 39.9414 72.4219 39.9609C72.4805 40 70.1172 44.4922 62.9688 57.9297C62.3828 59.0234 61.9141 59.9805 61.9141 60.0781C61.9141 60.2734 64.082 61.5234 64.3945 61.5234C64.5117 61.5234 67.0508 56.9141 70.0391 51.2695C76.1523 39.7852 75.918 40.0781 75.5859 44.5508C75.2344 49.0234 74.1211 52.5781 71.5625 57.2656C70.7812 58.75 70.1172 60.0195 70.1172 60.0977C70.1172 60.2734 72.3242 61.5234 72.6367 61.5234C72.7344 61.5234 73.457 60.3516 74.2383 58.9453C77.5 52.9883 78.75 48.3789 78.7695 42.2852V39.3555L79.4727 38.5547C80.1172 37.8125 91.9141 18.6523 92.9883 16.6016C93.3789 15.8789 93.457 15.4297 93.457 14.0625C93.457 12.1289 93.0078 10.9766 91.7773 9.74609C90.5859 8.55469 89.5898 8.14453 87.6953 8.04688C86.1328 7.98828 85.957 8.00781 84.8242 8.59375ZM89.0234 11.5234C90.0195 12.1289 90.4688 13.0078 90.3711 14.1602C90.3125 15.0391 89.7266 16.0938 83.9844 25.4883C80.5273 31.1719 77.5 36.0547 77.2656 36.2891C75.918 37.8125 73.5156 37.5977 72.4414 35.8984C72.1484 35.4102 72.0703 35.0195 72.1289 34.2773C72.1875 33.3984 72.7734 32.3438 78.5156 22.9492C81.9922 17.2461 84.9609 12.4219 85.1367 12.2266C86.0742 11.1133 87.832 10.8008 89.0234 11.5234Z" fill="#523F38"/>
<path d="M48.5352 42.5195C35.5664 43.6133 25.9961 46.1914 21.543 49.8047C18.8867 51.9531 18.3594 53.8281 19.0625 58.5742C19.4336 61.0547 19.9805 62.8516 22.0898 68.3008L23.7109 72.4414L24.9805 71.9531C25.6836 71.6797 26.3281 71.4063 26.4258 71.3086C26.5039 71.2305 25.7422 69.0234 24.7266 66.3867C22.8906 61.6016 22.5 60.4492 22.793 60.5859C22.8711 60.625 23.6523 61.0156 24.5117 61.4453C29.6289 64.082 37.5391 65.8984 48.0469 66.8359C51.7383 67.168 63.8477 67.1484 67.5781 66.8359C78.0664 65.8984 85.9766 64.1016 91.1133 61.4453C91.9727 61.0156 92.7539 60.625 92.832 60.5859C93.1445 60.4492 92.6758 61.7578 89.7266 69.3945C86.875 76.7773 86.0742 78.6133 85.1562 80L84.7461 80.625L85.8789 81.5234C86.5039 82.0117 87.0703 82.4219 87.1484 82.4219C87.3438 82.4219 88.3398 80.9375 88.9453 79.7266C89.5703 78.4961 94.4922 65.957 95.4297 63.2031C96.25 60.7617 96.6602 58.6914 96.7969 56.0547C96.9141 54.2383 96.875 53.8672 96.4844 52.8516C95.625 50.5859 92.832 48.4766 88.418 46.7188C85.7422 45.6641 81.8945 44.5898 81.6602 44.8438C81.5625 44.9414 81.3477 45.6055 81.1914 46.3281L80.8984 47.6563L81.7188 47.8516C86.3086 48.9844 90.8203 50.9766 92.5 52.6172C94.1602 54.2188 94.1406 55.1563 92.4805 56.7773C91.7773 57.4609 90.8008 58.1055 89.4336 58.7695L87.4414 59.7461L86.9141 58.9258C85.8203 57.207 84.0234 55.9961 80.8203 54.8047C79.7852 54.4141 78.8477 54.1016 78.7305 54.1016C78.4766 54.1016 77.6758 56.8555 77.8711 57.0313C77.9492 57.1094 78.5156 57.3242 79.1016 57.5C81.6211 58.3008 84.7656 60.2539 84.2578 60.7227C83.9844 60.9961 79.4922 62.0508 76.3672 62.5977C62.9492 64.8828 45.8008 64.4336 33.9844 61.5039C32.6367 61.1719 31.4844 60.8594 31.3867 60.8008C31.1133 60.6445 31.6406 59.9805 32.5586 59.3555C34.5117 58.0078 38.4961 56.6992 43.1445 55.8594C44.375 55.6445 45.4102 55.4297 45.4492 55.4102C45.4883 55.3711 45.4102 54.668 45.293 53.8477C45.0781 52.4023 45.0586 52.3633 44.5508 52.4414C38.5547 53.418 34.0625 54.7656 31.4258 56.3672C30.2539 57.0703 28.5156 58.8281 28.5156 59.2773C28.5156 59.8242 28.1055 59.7461 26.1523 58.7695C24.8437 58.1055 23.8086 57.4219 23.125 56.7578C21.4844 55.1563 21.4844 54.2188 23.1055 52.6367C26.2891 49.5508 35.6836 46.8164 46.25 45.8984C47.6172 45.7813 49.0234 45.6445 49.375 45.5859L50.0195 45.4883L49.9609 43.9844C49.9023 42.3438 49.9414 42.3828 48.5352 42.5195Z" fill="#523F38"/>
<path d="M18.5547 75.1367C15.9961 75.5664 13.3984 77.0898 11.8164 79.1015L10.957 80.1562L9.23828 80.1757C7.75391 80.1757 7.36328 80.2539 6.40625 80.7226C4.31641 81.7578 3.24219 83.5156 3.22266 85.9375C3.22266 87.1484 3.32031 87.5976 3.76953 88.5156C4.39453 89.7656 5.33203 90.6836 6.62109 91.289C7.30469 91.6015 7.92969 91.6992 9.23828 91.6992L10.957 91.7187L11.7773 92.7343C13.1445 94.414 14.6875 95.4882 16.9727 96.3671C18.0664 96.7773 18.0664 96.7773 42.1875 96.8359C59.1797 96.875 66.6992 96.8164 67.6172 96.6796C70.0195 96.2695 72.5391 94.7656 74.1211 92.7734L74.9805 91.7187L76.6992 91.6992C78.1836 91.6992 78.5742 91.6211 79.5312 91.1523C81.6211 90.1171 82.7148 88.3398 82.7148 85.9375C82.7148 83.5351 81.6211 81.7578 79.5312 80.7226C78.5742 80.2539 78.1836 80.1757 76.6992 80.1757L74.9805 80.1562L74.1211 79.1015C72.832 77.4609 71.0352 76.2304 68.7695 75.4296C67.9492 75.1367 65.5273 75.0976 43.457 75.0781C30.0391 75.0586 18.8281 75.0781 18.5547 75.1367ZM23.5156 78.8671C25.293 79.6875 26.4258 80.8203 27.3047 82.5781C27.9883 83.9843 28.0273 84.1601 28.0273 85.9375C28.0273 87.7148 27.9883 87.8906 27.3047 89.2968C26.4258 91.0742 25.293 92.1679 23.4766 93.0273C22.2852 93.5937 21.9922 93.6523 20.3125 93.6523C18.6328 93.6523 18.3398 93.5937 17.1875 93.0468C16.4844 92.6953 15.625 92.1679 15.2539 91.8554L14.5898 91.289L17.168 91.0546C19.375 90.8593 19.9219 90.7421 20.7617 90.2929C24.3359 88.3593 24.2773 83.3593 20.6836 81.5234C19.9219 81.1523 19.1992 80.9961 17.1875 80.8203L14.6484 80.6054L15.0586 80.1562C15.5859 79.6093 17.5 78.5742 18.4766 78.3203C19.8828 77.9687 22.1289 78.2226 23.5156 78.8671ZM68.7891 78.8476C70.6055 79.707 71.7383 80.8007 72.6172 82.5781C73.3008 83.9843 73.3398 84.1601 73.3398 85.9375C73.3398 87.7148 73.3008 87.8906 72.6172 89.2968C71.7383 91.0742 70.6055 92.1679 68.7891 93.0273L67.4805 93.6523L47.793 93.7109C28.6719 93.75 28.1055 93.75 28.3008 93.3984C28.3984 93.2031 28.6328 92.9101 28.8086 92.7734C29.2578 92.4023 30.3711 90.3125 30.7812 89.0625C31.2891 87.5781 31.2891 84.2968 30.7812 82.8125C30.3711 81.5625 29.2578 79.4726 28.8086 79.1015C28.6328 78.9648 28.3984 78.6718 28.3008 78.4765C28.1055 78.125 28.6719 78.125 47.793 78.164L67.4805 78.2226L68.7891 78.8476ZM14.1602 83.6718L19.2383 84.1601L19.7656 84.7461C20.4688 85.5468 20.4688 86.3281 19.7656 87.1289L19.2383 87.7343L13.9062 88.2226C8.71094 88.6914 8.57422 88.6914 7.87109 88.3398C6.79688 87.8125 6.19141 86.8359 6.30859 85.7617C6.42578 84.7461 6.93359 84.0039 7.83203 83.5546C8.65234 83.125 8.08594 83.1054 14.1602 83.6718ZM78.4375 83.6914C78.7109 83.8671 79.1016 84.2773 79.2969 84.6289C80.2734 86.2109 79.1602 88.3398 77.2266 88.6132L76.4648 88.7109V85.9375V83.164L77.207 83.2617C77.6172 83.3203 78.1641 83.5156 78.4375 83.6914Z" fill="#523F38"/>
</svg>
