<svg width="100" height="100" viewBox="0 0 100 100" fill="none" xmlns="http://www.w3.org/2000/svg">
<g clip-path="url(#clip0_30_137)">
<path d="M18.9453 23.7695C18.5547 23.9062 17.7929 24.6289 17.5195 25.0976C17.3828 25.332 17.2461 26.7578 17.1875 28.5156L17.0898 31.5429L13.2812 31.6601C11.1914 31.7187 9.4531 31.7773 9.41404 31.7969C9.37498 31.8164 9.23826 32.1094 9.10154 32.4609C8.73045 33.3203 8.96482 34.0234 9.78513 34.4336C10.3906 34.7461 11.2109 34.7656 20.2734 34.7265L30.1172 34.6679L30.5859 34.1211C31.1523 33.457 31.1914 32.832 30.6445 32.1484L30.2539 31.6406H25.2734H20.3125V29.1992V26.7578H46.1914H72.0703L72.0312 47.1094L71.9726 67.4804L60.5859 67.539C51.582 67.5781 49.1992 67.539 49.1211 67.3437C48.2226 64.7265 47.4023 63.4765 45.8008 62.2656C43.2617 60.332 39.6289 60.039 36.6992 61.5429C34.9219 62.4414 33.3008 64.414 32.5781 66.5039L32.2461 67.4804L26.289 67.539L20.3125 67.5781V63.0859V58.5937H22.9492C25.332 58.5937 25.625 58.5547 25.9765 58.2031C26.5625 57.6172 26.5625 56.582 25.957 55.957C25.5859 55.5664 25.3125 55.5664 15.0195 55.5664H4.4531L3.98435 56.1133C3.41795 56.7773 3.37888 57.4023 3.92576 58.0859L4.31638 58.5937H10.7617H17.1875V64.1406C17.1875 69.2969 17.207 69.707 17.5586 70.1367L17.9297 70.6054L25.1172 70.7031L32.2851 70.8008L32.5195 71.582C33.4179 74.6289 36.0937 76.9726 39.3554 77.5586C43.2812 78.2812 47.6758 75.6054 48.789 71.8359L49.1211 70.7031H63.3008H77.4609L77.7148 71.6797C78.2617 73.789 80.0781 75.8594 82.2851 76.8554C86.8945 78.9844 92.2461 76.6797 93.9258 71.875L94.2969 70.8008L96.1328 70.7031C98.164 70.5859 98.7695 70.332 99.4336 69.2773C99.8047 68.6914 99.8242 68.3594 99.7656 62.8906C99.707 57.2265 99.707 57.1094 99.2187 55.957C98.9453 55.3125 96.7578 51.2695 94.375 46.9726C89.8047 38.75 89.2187 37.9101 87.7734 37.5195C87.3047 37.3828 84.7265 37.3047 81.1133 37.3047H75.2148L75.1562 31.3867C75.0976 25.5664 75.0976 25.4883 74.6484 24.8437C73.7109 23.5351 75.8008 23.6328 46.1523 23.6523C31.3476 23.6523 19.1015 23.7109 18.9453 23.7695ZM87.2265 40.8008C87.8711 41.5429 96.1133 56.582 96.3867 57.5C96.6015 58.2422 96.6797 59.5898 96.6797 63.0273V67.5976L95.4883 67.539L94.3164 67.4804L93.9844 66.5039C92.5 62.1289 88.0859 59.707 83.6914 60.8398C80.8594 61.582 78.457 63.9062 77.6367 66.6992C77.4023 67.4804 77.4023 67.4804 76.289 67.539L75.1953 67.5976V54.0039V40.4297H81.0547C86.5429 40.4297 86.9336 40.4492 87.2265 40.8008ZM42.3633 63.9844C43.5742 64.3359 44.9414 65.5078 45.5469 66.6797C46.1133 67.7734 46.2304 69.6094 45.8203 70.8398C45.3906 72.1289 44.3359 73.3203 43.0859 73.9648C41.875 74.5898 39.8242 74.6679 38.6133 74.1406C37.4804 73.6523 36.2304 72.3828 35.7422 71.25C35.2148 70 35.2539 67.9101 35.8398 66.6992C36.6601 65.039 38.7109 63.7109 40.5469 63.6914C40.9765 63.6719 41.7969 63.8086 42.3633 63.9844ZM87.7539 64.0625C91.4648 65.4492 92.4219 70.4492 89.4922 73.0859C88.3594 74.1015 87.4414 74.4726 85.9375 74.4726C82.9101 74.4922 80.7031 72.4414 80.5078 69.4531C80.4101 67.7148 80.8789 66.4648 82.1094 65.2539C83.6328 63.75 85.7422 63.3008 87.7539 64.0625Z" fill="#523F38"/>
<path d="M18.0664 38.125C17.2266 38.6133 17.207 38.7695 17.1875 43.6914V48.4375H14.8437C12.5977 48.4375 12.4609 48.457 12.0117 48.9258C11.3672 49.5508 11.3672 50.4492 12.0117 51.0742L12.4805 51.5625H26.8164C41.0352 51.5625 41.1719 51.5625 41.6797 51.1523C42.4023 50.5859 42.4023 49.4141 41.6797 48.8477C41.1719 48.4375 40.9766 48.4375 30.7422 48.4375H20.3125V43.7305V39.0234L19.7461 38.457C19.1406 37.8516 18.6914 37.7734 18.0664 38.125Z" fill="#523F38"/>
<path d="M0.429681 40.5468C-0.234381 41.0156 -0.175787 42.4023 0.527338 42.9687C1.03515 43.3593 1.1914 43.3788 6.99218 43.3202L12.9297 43.2617L13.3008 42.7929C13.8086 42.1679 13.7891 41.1913 13.2227 40.664C12.7734 40.2343 12.6562 40.2343 6.8164 40.2343C1.75781 40.2343 0.800775 40.2734 0.429681 40.5468Z" fill="#523F38"/>
</g>
<defs>
<clipPath id="clip0_30_137">
<rect width="100" height="100" fill="white"/>
</clipPath>
</defs>
</svg>
