<svg width="31" height="31" viewBox="0 0 31 31" fill="none" xmlns="http://www.w3.org/2000/svg">
<g clip-path="url(#clip0_23_7)">
<path d="M30.5 15.5919C30.5 7.25565 23.7838 0.498154 15.5 0.498154C7.21253 0.500029 0.496277 7.25565 0.496277 15.5938C0.496277 23.1257 5.98253 29.3694 13.1525 30.5019V19.955H9.34628V15.5938H13.1563V12.2657C13.1563 8.48378 15.3969 6.39503 18.8225 6.39503C20.465 6.39503 22.1807 6.6894 22.1807 6.6894V10.4019H20.2888C18.4269 10.4019 17.8457 11.5663 17.8457 12.7607V15.5919H22.0044L21.3407 19.9532H17.8438V30.5C25.0138 29.3675 30.5 23.1238 30.5 15.5919Z" fill="#EEF5DB"/>
</g>
<defs>
<clipPath id="clip0_23_7">
<rect width="30" height="30" fill="white" transform="translate(0.5 0.5)"/>
</clipPath>
</defs>
</svg>
