<svg width="31" height="31" viewBox="0 0 31 31" fill="none" xmlns="http://www.w3.org/2000/svg">
<g clip-path="url(#clip0_23_5)">
<path d="M15.5 0.5C11.4294 0.5 10.9175 0.51875 9.31812 0.59C7.71875 0.665 6.62937 0.91625 5.675 1.2875C4.67346 1.66311 3.76651 2.25387 3.01813 3.01813C2.25387 3.76651 1.66311 4.67346 1.2875 5.675C0.91625 6.6275 0.663125 7.71875 0.59 9.3125C0.51875 10.9156 0.5 11.4256 0.5 15.5019C0.5 19.5744 0.51875 20.0844 0.59 21.6838C0.665 23.2812 0.91625 24.3706 1.2875 25.325C1.67188 26.3112 2.18375 27.1475 3.01813 27.9819C3.85063 28.8162 4.68687 29.33 5.67313 29.7125C6.62937 30.0837 7.71688 30.3369 9.31437 30.41C10.9156 30.4812 11.4256 30.5 15.5 30.5C19.5744 30.5 20.0825 30.4812 21.6838 30.41C23.2794 30.335 24.3725 30.0837 25.3269 29.7125C26.3277 29.3366 27.234 28.7459 27.9819 27.9819C28.8162 27.1475 29.3281 26.3112 29.7125 25.325C30.0819 24.3706 30.335 23.2812 30.41 21.6838C30.4812 20.0844 30.5 19.5744 30.5 15.5C30.5 11.4256 30.4812 10.9156 30.41 9.31437C30.335 7.71875 30.0819 6.6275 29.7125 5.675C29.3369 4.67346 28.7461 3.76651 27.9819 3.01813C27.2335 2.25387 26.3265 1.66311 25.325 1.2875C24.3687 0.91625 23.2775 0.663125 21.6819 0.59C20.0806 0.51875 19.5725 0.5 15.4963 0.5H15.5ZM14.1556 3.20375H15.5019C19.5069 3.20375 19.9812 3.21688 21.5619 3.29C23.0244 3.35563 23.8194 3.60125 24.3481 3.80562C25.0475 4.0775 25.5481 4.40375 26.0731 4.92875C26.5981 5.45375 26.9225 5.9525 27.1944 6.65375C27.4006 7.18062 27.6444 7.97563 27.71 9.43813C27.7831 11.0188 27.7981 11.4931 27.7981 15.4963C27.7981 19.4994 27.7831 19.9756 27.71 21.5562C27.6444 23.0187 27.3988 23.8119 27.1944 24.3406C26.9522 24.9911 26.5686 25.5796 26.0712 26.0637C25.5462 26.5887 25.0475 26.9131 24.3463 27.185C23.8213 27.3913 23.0262 27.635 21.5619 27.7025C19.9812 27.7738 19.5069 27.7906 15.5019 27.7906C11.4969 27.7906 11.0206 27.7738 9.44 27.7025C7.9775 27.635 7.18437 27.3913 6.65562 27.185C6.00469 26.9436 5.4155 26.5606 4.93062 26.0637C4.43239 25.5793 4.04812 24.99 3.80562 24.3387C3.60125 23.8119 3.35563 23.0169 3.29 21.5544C3.21875 19.9738 3.20375 19.4994 3.20375 15.4925C3.20375 11.4856 3.21875 11.015 3.29 9.43437C3.3575 7.97187 3.60125 7.17688 3.8075 6.64813C4.07938 5.94875 4.40562 5.44812 4.93062 4.92312C5.45563 4.39812 5.95437 4.07375 6.65562 3.80188C7.18437 3.59563 7.9775 3.35188 9.44 3.28437C10.8238 3.22062 11.36 3.20188 14.1556 3.2V3.20375ZM23.5081 5.69375C23.2717 5.69375 23.0377 5.74031 22.8193 5.83077C22.6009 5.92123 22.4025 6.05381 22.2353 6.22096C22.0682 6.3881 21.9356 6.58653 21.8451 6.80492C21.7547 7.02331 21.7081 7.25737 21.7081 7.49375C21.7081 7.73013 21.7547 7.96419 21.8451 8.18258C21.9356 8.40097 22.0682 8.5994 22.2353 8.76654C22.4025 8.93369 22.6009 9.06627 22.8193 9.15673C23.0377 9.24719 23.2717 9.29375 23.5081 9.29375C23.9855 9.29375 24.4434 9.10411 24.7809 8.76654C25.1185 8.42898 25.3081 7.97114 25.3081 7.49375C25.3081 7.01636 25.1185 6.55852 24.7809 6.22096C24.4434 5.88339 23.9855 5.69375 23.5081 5.69375ZM15.5019 7.7975C14.4801 7.78156 13.4654 7.96904 12.5168 8.34901C11.5682 8.72899 10.7047 9.29388 9.97653 10.0108C9.24835 10.7277 8.67006 11.5823 8.27533 12.5249C7.8806 13.4674 7.67731 14.4791 7.67731 15.5009C7.67731 16.5228 7.8806 17.5345 8.27533 18.477C8.67006 19.4196 9.24835 20.2742 9.97653 20.9911C10.7047 21.708 11.5682 22.2729 12.5168 22.6529C13.4654 23.0328 14.4801 23.2203 15.5019 23.2044C17.5241 23.1728 19.4529 22.3473 20.8718 20.9061C22.2908 19.4649 23.0861 17.5234 23.0861 15.5009C23.0861 13.4784 22.2908 11.537 20.8718 10.0958C19.4529 8.65454 17.5241 7.82905 15.5019 7.7975ZM15.5019 10.4994C16.1586 10.4994 16.8088 10.6287 17.4155 10.88C18.0222 11.1313 18.5735 11.4997 19.0379 11.964C19.5022 12.4284 19.8705 12.9796 20.1219 13.5863C20.3732 14.193 20.5025 14.8433 20.5025 15.5C20.5025 16.1567 20.3732 16.807 20.1219 17.4137C19.8705 18.0204 19.5022 18.5716 19.0379 19.036C18.5735 19.5003 18.0222 19.8687 17.4155 20.12C16.8088 20.3713 16.1586 20.5006 15.5019 20.5006C14.1756 20.5006 12.9037 19.9738 11.9659 19.036C11.0281 18.0982 10.5013 16.8262 10.5013 15.5C10.5013 14.1738 11.0281 12.9018 11.9659 11.964C12.9037 11.0262 14.1756 10.4994 15.5019 10.4994Z" fill="#EEF5DB"/>
</g>
<defs>
<clipPath id="clip0_23_5">
<rect width="30" height="30" fill="white" transform="translate(0.5 0.5)"/>
</clipPath>
</defs>
</svg>
