<svg width="156" height="58" viewBox="0 0 156 58" fill="none" xmlns="http://www.w3.org/2000/svg">
<g clip-path="url(#clip0_36_2)">
<g clip-path="url(#clip1_36_2)">
<g clip-path="url(#clip2_36_2)">
<g clip-path="url(#clip3_36_2)">
<g clip-path="url(#clip4_36_2)">
<g clip-path="url(#clip5_36_2)">
<g clip-path="url(#clip6_36_2)">
<g clip-path="url(#clip7_36_2)">
<path d="M46.6121 49.5134C43.6173 49.5134 41.3353 48.6561 39.7659 46.9413C38.1889 45.2266 37.4004 42.807 37.4004 39.6824V18.1914C37.4004 15.0668 38.1889 12.6471 39.7659 10.9324C41.3353 9.21771 43.6173 8.36035 46.6121 8.36035C49.6068 8.36035 51.8927 9.21771 53.4697 10.9324C55.0391 12.6471 55.8238 15.0668 55.8238 18.1914V22.421H49.9101V17.7913C49.9101 15.3145 48.8676 14.0761 46.7827 14.0761C44.6977 14.0761 43.6552 15.3145 43.6552 17.7913V40.1397C43.6552 42.5784 44.6977 43.7977 46.7827 43.7977C48.8676 43.7977 49.9101 42.5784 49.9101 40.1397V34.0239H55.8238V39.6824C55.8238 42.807 55.0391 45.2266 53.4697 46.9413C51.8927 48.6561 49.6068 49.5134 46.6121 49.5134ZM59.5767 48.9418V8.93192H68.8452C72.0674 8.93192 74.4177 9.68639 75.8961 11.1953C77.3745 12.6967 78.1137 15.0096 78.1137 18.1342V20.592C78.1137 24.7454 76.7491 27.3746 74.0197 28.4796V28.5939C75.536 29.0512 76.605 29.9848 77.2267 31.3946C77.856 32.8045 78.1706 34.6907 78.1706 37.0532V44.0835C78.1706 45.2266 78.2085 46.1488 78.2843 46.8499C78.3601 47.5586 78.5497 48.256 78.853 48.9418H72.4844C72.2569 48.2941 72.1053 47.6844 72.0295 47.1128C71.9537 46.5413 71.9158 45.5124 71.9158 44.0263V36.7102C71.9158 34.8812 71.6201 33.6047 71.0287 32.8807C70.4449 32.1567 69.4328 31.7947 67.9923 31.7947H65.8315V48.9418H59.5767ZM65.8315 26.079H68.106C69.357 26.079 70.2933 25.7551 70.915 25.1074C71.5443 24.4596 71.8589 23.3736 71.8589 21.8494V18.7629C71.8589 17.315 71.6011 16.2671 71.0856 15.6193C70.5776 14.9715 69.774 14.6476 68.6746 14.6476H65.8315V26.079ZM82.4808 48.9418V8.93192H88.7356V48.9418H82.4808ZM101.53 49.5134C98.497 49.5134 96.2035 48.6446 94.6493 46.9071C93.095 45.1771 92.3179 42.6927 92.3179 39.4538V37.1675H98.2316V39.911C98.2316 42.5022 99.312 43.7977 101.473 43.7977C102.534 43.7977 103.342 43.4814 103.895 42.8489C104.441 42.224 104.714 41.2066 104.714 39.7967C104.714 38.1201 104.335 36.6417 103.577 35.3613C102.818 34.0886 101.416 32.5568 99.3688 30.7659C96.7911 28.4796 94.9905 26.4105 93.9669 24.5587C92.9434 22.7144 92.4317 20.6301 92.4317 18.3057C92.4317 15.143 93.2277 12.6929 94.8199 10.9553C96.412 9.22533 98.7244 8.36035 101.757 8.36035C104.752 8.36035 107.019 9.22533 108.558 10.9553C110.089 12.6929 110.855 15.1811 110.855 18.42V20.0775H104.941V18.0199C104.941 16.6481 104.676 15.646 104.145 15.0134C103.615 14.3885 102.837 14.0761 101.814 14.0761C99.729 14.0761 98.6865 15.3526 98.6865 17.9056C98.6865 19.3536 99.077 20.7063 99.8579 21.9637C100.631 23.2212 102.041 24.7454 104.088 26.5363C106.704 28.8226 108.505 30.8993 109.49 32.7664C110.476 34.6335 110.969 36.8246 110.969 39.3395C110.969 42.6165 110.165 45.1314 108.558 46.8842C106.943 48.637 104.6 49.5134 101.53 49.5134ZM114.551 48.9418V8.93192H123.763C126.871 8.93192 129.203 9.77023 130.757 11.4468C132.311 13.1234 133.088 15.5812 133.088 18.8201V22.7639C133.088 26.0028 132.311 28.4606 130.757 30.1372C129.203 31.8138 126.871 32.6521 123.763 32.6521H120.806V48.9418H114.551ZM120.806 26.9364H123.763C124.786 26.9364 125.556 26.6506 126.071 26.079C126.579 25.5075 126.833 24.5358 126.833 23.164V18.42C126.833 17.0482 126.579 16.0766 126.071 15.505C125.556 14.9334 124.786 14.6476 123.763 14.6476H120.806V26.9364ZM141.959 48.9418V31.909L134.396 8.93192H141.049L145.314 23.6213H145.427L149.692 8.93192H155.776L148.214 31.909V48.9418H141.959Z" fill="#EEF5DB"/>
</g>
</g>
</g>
</g>
<g clip-path="url(#clip8_36_2)">
<g clip-path="url(#clip9_36_2)">
<path d="M27.2956 24.0241C25.9357 19.0284 22.3555 17.9217 22.3555 17.9217C21.8957 15.3873 19.6578 11.5149 19.6578 11.5149C17.4595 7.67984 12.8413 6.09685 12.8413 6.09685C12.023 4.10077 9.9554 1.77938 9.9554 1.77938C8.2957 0.230762 7.16053 0.521703 7.16053 0.521703C4.94576 0.931721 3.16149 3.41638 3.16149 3.41638C0.987633 6.43996 4.96469 14.2168 4.96469 14.2168C2.35484 17.8683 2.97952 24.2003 2.97952 24.2003C0.263421 25.8133 0.0497 28.3367 0.0497 28.3367C-0.236077 32.2766 2.57467 33.6 2.57467 33.6C2.29378 35.8465 2.67909 39.3151 2.67909 39.3151C2.86228 41.7353 4.72349 43.4245 4.72349 43.4245C2.07151 48.058 2.51178 52.4203 2.51178 52.4203C3.08821 56.3204 6.12856 57.2663 6.12856 57.2663C9.96212 58.333 13.1673 51.0921 13.1673 51.0921C16.0801 50.8883 18.1013 48.8081 18.1013 48.8081C20.2684 46.642 21.9177 41.2123 21.9177 41.2123C22.6596 40.8993 23.8956 39.7153 23.8956 39.7153C26.7753 36.5382 27.4476 31.5008 27.4476 31.5008C28.1608 27.0673 27.2956 24.0241 27.2956 24.0241ZM4.13362 5.70094C4.13362 5.70094 3.99134 4.44327 5.38359 3.22242C5.38359 3.22242 7.14954 1.69161 7.90795 2.22316C7.90795 2.22316 9.31973 2.50121 11.9876 8.061C11.9876 8.061 10.9727 8.98416 8.94114 10.4321C8.94114 10.4321 6.81858 11.5873 6.01743 12.8051C6.01743 12.8051 4.24964 9.07746 4.13362 5.70094ZM5.34573 16.7978C5.34573 16.7978 6.5847 13.4225 9.42049 12.0206C9.42049 12.0206 13.0904 10.016 13.6595 8.09292C13.6595 8.09292 18.8188 9.81586 20.8705 18.7951C20.8705 18.7951 20.0742 20.2726 14.7715 21.343C14.7715 21.343 8.56194 22.3288 4.70212 23.6306C4.70212 23.6306 4.6783 18.0531 5.34573 16.7978ZM5.98384 55.4451C5.98384 55.4451 3.78006 53.6614 4.07133 50.7146C4.07133 50.7146 4.88531 46.7715 5.98384 44.4556C5.98384 44.4556 8.08014 45.5942 9.2086 46.8642C9.2086 46.8642 11.3715 49.2114 11.8404 50.0185C11.8404 50.0185 9.12067 57.057 5.98384 55.4451ZM17.3142 47.289C17.3142 47.289 15.8096 49.2476 13.3395 49.3667C13.3395 49.3667 10.2174 45.0676 7.20999 43.3355C7.20999 43.3355 4.15133 41.5469 4.2301 38.0893C4.2301 38.0893 3.91562 35.4138 4.08599 34.4077C4.08599 34.4077 5.00621 34.6342 6.88819 35.0897C6.88819 35.0897 15.8297 36.7396 20.683 39.3323C20.683 39.3323 19.2267 44.5066 17.3142 47.289ZM26.034 29.4415C26.034 29.4415 25.8184 35.6703 22.2902 39.0389C22.2902 39.0389 22.7067 37.5406 16.5209 35.9269C16.5209 35.9269 8.8874 33.5662 5.15826 33.1059C5.15826 33.1059 1.22639 32.3736 1.5946 28.9474C1.5946 28.9474 1.41874 25.7519 5.2639 25.0737C5.2639 25.0737 9.60001 24.1346 12.3411 23.3268C12.3411 23.3268 15.3852 22.8579 16.5228 22.5718C16.5228 22.5718 20.7673 22.0814 22.2182 19.5931C22.2182 19.5931 26.6727 21.1055 26.034 29.4415Z" fill="#EEF5DB"/>
</g>
</g>
</g>
</g>
</g>
</g>
<defs>
<clipPath id="clip0_36_2">
<rect width="156" height="57" fill="white" transform="translate(0 0.5)"/>
</clipPath>
<clipPath id="clip1_36_2">
<rect width="156" height="57" fill="white" transform="translate(-0.0945435 0.436768)"/>
</clipPath>
<clipPath id="clip2_36_2">
<rect width="155.752" height="56.8735" fill="white" transform="translate(0.0292358 0.5)"/>
</clipPath>
<clipPath id="clip3_36_2">
<rect width="155.752" height="56.8735" fill="white" transform="translate(0.0292358 0.5)"/>
</clipPath>
<clipPath id="clip4_36_2">
<rect width="118.387" height="41.1531" fill="white" transform="translate(37.3945 8.36035)"/>
</clipPath>
<clipPath id="clip5_36_2">
<rect width="118.387" height="41.1531" fill="white" transform="translate(37.3945 8.36035)"/>
</clipPath>
<clipPath id="clip6_36_2">
<rect width="118.387" height="41.1531" fill="white" transform="translate(37.3945 8.36035)"/>
</clipPath>
<clipPath id="clip7_36_2">
<rect width="118.387" height="41.1531" fill="white" transform="translate(37.3945 8.36035)"/>
</clipPath>
<clipPath id="clip8_36_2">
<rect width="27.7002" height="56.8735" fill="white" transform="translate(0.0292358 0.5)"/>
</clipPath>
<clipPath id="clip9_36_2">
<rect width="27.7002" height="56.8735" fill="white" transform="translate(0.0292358 0.5)"/>
</clipPath>
</defs>
</svg>
