<svg width="100" height="100" viewBox="0 0 100 100" fill="none" xmlns="http://www.w3.org/2000/svg">
<path d="M35.3516 0.175797C34.0039 0.605484 32.8125 1.60158 32.1094 2.9297C31.7578 3.5547 31.7383 4.27736 31.6797 12.9297L31.6211 22.2656L29.3359 23.418C17.9102 29.2578 9.57031 39.8047 6.36719 52.5C5.17578 57.1289 5.19531 56.7774 5.07812 74.0235L4.98047 89.9414L3.61328 90.0391C1.91406 90.1563 1.05469 90.625 0.449219 91.7774C0.0585938 92.5391 0 92.9102 0 94.9414C0 97.4414 0.136719 98.0469 0.9375 98.9063C2.05078 100.078 -1.48438 100 50 100C101.484 100 97.9492 100.078 99.0625 98.9063C99.8633 98.0469 100 97.4414 100 94.9414C100 92.9102 99.9414 92.5391 99.5508 91.7774C98.9453 90.625 98.0859 90.1563 96.3867 90.0391L95.0195 89.9414L94.9023 74.0235C94.7852 56.7969 94.8047 57.1094 93.6523 52.5195C90.4102 39.7266 81.9141 29.0625 70.3711 23.2617L68.3789 22.2656L68.3203 12.9492C68.2617 4.27736 68.2422 3.5547 67.8906 2.9297C67.3828 1.97267 66.4453 1.01564 65.5273 0.527359C64.7461 0.0976715 64.707 0.0976715 50.293 0.058609C42.3438 0.0390778 35.625 0.0976715 35.3516 0.175797ZM48.2422 6.64064V9.96095H41.6016H34.9609V7.20705V4.45314L35.5273 3.88673L36.0938 3.32033H42.168H48.2422V6.64064ZM64.4727 3.88673L65.0391 4.45314V7.20705V9.96095H58.3984H51.7578V6.64064V3.32033H57.832H63.9062L64.4727 3.88673ZM40.0391 16.3477V19.4336L37.832 20.0586C36.6406 20.3906 35.4883 20.7227 35.3125 20.8008C34.9805 20.9375 34.9609 20.6836 34.9609 17.1094V13.2813H37.5H40.0391V16.3477ZM56.6406 16.0352V18.7695L55.0391 18.6133C54.1406 18.5352 51.875 18.457 50 18.457C48.125 18.457 45.8594 18.5352 44.9805 18.6133L43.3594 18.7695V16.0352V13.2813H50H56.6406V16.0352ZM65.0391 17.1094C65.0391 20.6836 65.0195 20.9375 64.707 20.8008C64.5117 20.7227 63.3594 20.3906 62.168 20.0586L59.9609 19.4336V16.3477V13.2813H62.5H65.0391V17.1094ZM48.2422 24.1992V26.6992L46.6602 26.8359C43.0469 27.1289 38.3008 28.3984 34.8828 29.9609C34.043 30.3516 33.2812 30.6641 33.2031 30.6641C33.0469 30.6641 30.625 26.543 30.7227 26.4453C30.7617 26.4063 31.6211 25.9961 32.6367 25.5078C36.9336 23.4961 40.8789 22.4609 46.582 21.7969C46.9141 21.7774 47.4023 21.7188 47.7148 21.6992L48.2422 21.6797V24.1992ZM56.4453 22.1875C60.1172 22.7539 64.8047 24.1992 67.8711 25.7227C68.6328 26.1133 69.2578 26.4258 69.2969 26.4649C69.3945 26.543 66.9531 30.6641 66.7969 30.6641C66.7188 30.6641 66.0156 30.3711 65.2148 30C61.7383 28.3984 57.0117 27.1289 53.3789 26.8359L51.7578 26.6992V24.1797V21.6602L53.1836 21.7774C53.9453 21.8555 55.4297 22.0313 56.4453 22.1875ZM28.9844 30.2539C29.5898 31.3086 30.0781 32.2852 30.0781 32.4024C30.0781 32.5 29.668 32.8906 29.1602 33.2227C25.9961 35.3711 22.4023 38.9453 20.0391 42.2461C19.5312 42.9688 19.043 43.5156 18.9844 43.4766C18.9062 43.4375 17.9688 42.9102 16.8945 42.2852C15.8203 41.6797 14.9023 41.1328 14.8828 41.1133C14.8438 41.0742 15.1562 40.5274 15.6055 39.8828C18.3398 35.8594 22.168 31.9922 26.3672 29.043C27.0703 28.5547 27.6953 28.2031 27.7539 28.2422C27.832 28.2813 28.3789 29.1797 28.9844 30.2539ZM77.3242 31.9531C79.6289 33.9453 82.0312 36.5625 83.9062 39.1992C84.5898 40.1367 85.1562 40.957 85.1562 41.0156C85.1562 41.0742 84.5703 41.4649 83.8477 41.875C83.1055 42.2852 82.1484 42.832 81.7188 43.1055L80.918 43.5547L79.8047 42.0508C77.6367 39.043 74.2578 35.6641 71.3867 33.5938C70.6445 33.0469 70 32.5195 69.9609 32.4219C69.9023 32.2461 71.6406 29.0039 72.1289 28.3789C72.3633 28.0469 74.4922 29.5117 77.3242 31.9531ZM55.4883 30.4883C68.8867 32.7344 79.5508 42.832 82.5 56.0547C83.2812 59.6289 83.3984 62.0703 83.3984 76.5039V90.0391H81.7578H80.1367L80.0391 87.7539C79.9609 85.7617 79.8633 85.3125 79.4336 84.4531C78.3789 82.3633 76.8164 81.6406 73.3984 81.6406C72.2461 81.6406 71.2891 81.6016 71.2891 81.582C71.2891 81.543 71.7188 80.8008 72.2266 79.9414C73.3984 78.0078 74.4922 74.7656 74.8242 72.3047C75.1562 69.6875 74.9414 65.3125 74.3359 62.6953C73.7891 60.3516 73.2227 58.7305 72.168 56.6406C70.8203 53.9453 70.0586 53.2813 68.3203 53.2813C67.1484 53.3008 66.2695 53.8086 65.5273 54.8828C65.2148 55.332 64.6289 55.957 64.1992 56.2891C63.3594 56.9531 63.0859 56.8359 63.0859 55.8399C63.0859 55.5469 62.8711 54.4922 62.6172 53.4961C61.3086 48.3399 58.8477 44.1406 54.707 40.0391C52.0508 37.4024 51.0352 36.7188 49.7656 36.7188C48.0664 36.7188 47.207 37.4414 46.3672 39.5117C45.625 41.4063 44.2383 43.418 42.3438 45.4297C40.5078 47.3828 39.4141 48.7891 38.4766 50.4492L37.8516 51.5625L36.7578 50.625C35.1367 49.2578 35.0391 49.1992 34.2383 49.0039C33.1836 48.7695 31.9922 49.1211 31.25 49.9024C30.5664 50.6055 30.293 51.5234 30.2734 53.0664C30.2734 54.3555 29.668 57.5195 29.1016 59.1797C28.8672 59.8828 28.125 61.6406 27.4219 63.1055C25.8789 66.3867 25.2148 68.75 25.0586 71.4844C24.8633 74.8633 25.5664 77.6172 27.2656 80.1953C27.7344 80.918 28.125 81.543 28.125 81.5625C28.125 81.6016 27.3047 81.6406 26.3086 81.6406C23.2031 81.6406 21.6016 82.4219 20.5664 84.4531C20.1367 85.3125 20.0391 85.7617 19.9609 87.7344L19.8633 90.0391H18.2422H16.6016V76.5039C16.6016 68.75 16.6992 61.9922 16.8164 60.6641C18.125 45.6641 28.75 33.7305 43.457 30.6836C46.0938 30.1367 46.1133 30.1367 49.8242 30.0977C52.3242 30.0781 53.6328 30.1758 55.4883 30.4883ZM52.3047 42.3438C55.5078 45.5469 57.5195 48.6133 58.7695 52.2266C59.4531 54.1797 59.9609 56.7578 59.9609 58.3203C59.9609 60.3906 60.7227 61.0938 62.5391 60.7227C64.4141 60.332 65.8789 59.4922 67.2461 58.0078L68.4961 56.6602L69.2969 58.3594C71.0742 62.1289 71.582 64.5703 71.5625 69.043C71.5625 71.7969 71.4844 72.6367 71.1328 73.9258C70.5859 75.957 69.2383 78.6719 67.9492 80.332L66.9531 81.6406H62.5586C60.1367 81.6406 58.2031 81.582 58.2422 81.4844C58.2812 81.4063 58.5547 80.8789 58.8477 80.332C61.7969 74.707 58.8477 66.0352 51.3672 58.3594C49.707 56.6602 49.0234 56.3867 47.793 56.8945C46.543 57.4219 46.3867 57.8711 46.3477 61.4258C46.3281 63.3399 46.2109 65.1563 46.0156 66.1133C45.6055 68.1641 44.5312 71.2891 44.2188 71.2891C44.082 71.2891 43.6133 70.9961 43.1836 70.625C42.207 69.8047 41.7773 69.6485 40.918 69.8047C39.8242 70.0195 39.2969 70.586 38.8281 72.1289C38.0273 74.7852 38.3203 77.9102 39.6094 80.3711C39.9023 80.8985 40.1562 81.4063 40.1953 81.4844C40.2344 81.582 38.8672 81.6406 37.1484 81.6406C34.1016 81.6406 34.0234 81.6211 32.8906 81.0547C29.9805 79.6094 28.418 76.4258 28.4375 72.0703C28.4375 69.4727 28.8867 67.8125 30.5664 64.2578C32.4219 60.3125 33.5938 56.0742 33.5938 53.3789C33.5938 52.8711 33.6914 52.5391 33.8281 52.5391C34.2578 52.5391 35.7422 54.3359 36.3672 55.6055C37.1094 57.1289 37.7539 57.6953 38.5547 57.5391C39.4336 57.3633 39.8047 56.8945 40.0586 55.6836C40.625 52.9297 41.875 50.8203 44.8242 47.6563C46.9141 45.4102 48.3203 43.3984 49.1602 41.4844C49.4531 40.8008 49.8047 40.2344 49.9414 40.2344C50.0781 40.2344 51.1328 41.1719 52.3047 42.3438ZM15.8203 45.5274C16.6211 45.9766 17.3242 46.3867 17.3633 46.4258C17.4023 46.4453 17.0898 47.2461 16.6602 48.1836C15.0586 51.6406 13.8281 56.2109 13.5352 59.7852L13.3789 61.6211L10.8984 61.6797L8.39844 61.7383V61.0547C8.39844 59.6484 9.00391 55.6641 9.58984 53.3203C10.2344 50.7617 11.1914 48.0078 12.3828 45.4492L13.0859 43.9063L13.7109 44.2969C14.0625 44.5117 15.0195 45.0586 15.8203 45.5274ZM87.6172 45.4492C88.8086 48.0078 89.7656 50.7617 90.4102 53.3203C90.9961 55.6641 91.6016 59.6484 91.6016 61.0547V61.7383L89.1211 61.6797L86.6211 61.6211L86.4844 59.9609C86.1719 56.2305 84.9414 51.6406 83.3398 48.1641C82.8906 47.207 82.6172 46.3867 82.7148 46.3477C82.832 46.3086 83.7891 45.7617 84.8633 45.1172C85.9375 44.4922 86.8359 43.9649 86.875 43.9453C86.8945 43.9453 87.2461 44.6289 87.6172 45.4492ZM53.0273 65.6445C55.3125 69.0235 56.3477 71.7383 56.582 74.8047C56.7578 77.5 55.8594 79.7656 54.082 81.0547L53.2617 81.6406H49.2188H45.1953L44.4922 81.0938C42.5586 79.6289 41.3867 76.9141 41.6992 74.7266L41.8359 73.8477L42.5391 74.2188C42.9102 74.4336 43.6914 74.6875 44.2578 74.8047C45.7422 75.1172 46.2109 74.8438 47.1094 73.1445C48.4961 70.5274 49.4141 67.0117 49.7266 63.1836L49.8438 61.6211L50.8203 62.6953C51.3477 63.2813 52.3438 64.6094 53.0273 65.6445ZM13.2812 72.5586V80.0781H10.8398H8.39844V72.5586V65.0391H10.8398H13.2812V72.5586ZM91.6016 72.5586V80.0781H89.1602H86.7188V72.5586V65.0391H89.1602H91.6016V72.5586ZM13.2812 86.7188V90.0391H10.8398H8.39844V86.7188V83.3985H10.8398H13.2812V86.7188ZM91.6016 86.7188V90.0391H89.1602H86.7188V86.7188V83.3985H89.1602H91.6016V86.7188ZM75.7812 85.2539C76.5234 85.6445 76.7969 86.582 76.7188 88.4766L76.6602 89.9414H50H23.3398L23.2812 88.4766C23.2031 86.6406 23.4766 85.6445 24.1797 85.2735C24.9805 84.8242 74.9414 84.8242 75.7812 85.2539ZM96.6797 95.0195V96.6797H50H3.32031V95.0195V93.3594H50H96.6797V95.0195Z" fill="#523F38"/>
</svg>
