<svg width="100" height="100" viewBox="0 0 100 100" fill="none" xmlns="http://www.w3.org/2000/svg">
<path d="M81.7383 2.05078C81.3281 2.44141 81.25 2.71484 81.25 3.61328V4.6875H64.4922C50.0781 4.6875 47.5781 4.72656 46.582 4.98047C45.8008 5.17578 42.6758 6.77734 37.3633 9.66797L29.2969 14.0625H19.7656H10.2344L9.21875 14.5703C7.98828 15.1758 7.14844 16.2695 6.64062 17.9492C5.91797 20.2344 6.32812 22.9883 7.61719 24.7461C8.00781 25.2734 8.61328 25.7617 9.29688 26.0938C9.86328 26.3672 10.3516 26.6406 10.3516 26.6797C10.3516 26.7188 8.75 32.1484 6.79688 38.7305L3.22266 50.6836L3.16406 74.082L3.125 97.4805L3.59375 97.9492L4.08203 98.4375H39.8438H75.6055L76.0938 97.9492L76.5625 97.4805L76.5234 74.1797L76.4648 50.8789L73.1836 39.7656C71.3672 33.6719 69.8438 28.5547 69.8047 28.4375C69.7461 28.2812 70.1562 28.125 71.0156 27.9883C74.375 27.4023 77.0312 24.9414 77.8516 21.6211L78.1836 20.3125H79.707H81.25V22.168C81.25 23.8867 81.2891 24.082 81.7383 24.5117L82.207 25H89.0625H95.918L96.3867 24.5117L96.875 24.043V13.2812V2.51953L96.3867 2.05078L95.918 1.5625H89.0625H82.207L81.7383 2.05078ZM93.75 13.2812V21.875H89.0625H84.375V13.2812V4.6875H89.0625H93.75V13.2812ZM81.25 12.5V17.1875H79.0625C77.2266 17.1875 76.7578 17.2461 76.2305 17.5781C75.4297 18.0469 75.0781 18.7695 74.9414 20.1367C74.8242 21.4648 74.4141 22.3047 73.457 23.3008C72.1484 24.6875 71.5625 24.8828 68.1445 25C65.6055 25.0781 65.0195 25.1562 64.5508 25.4688C64.2383 25.6836 61.9531 27.4219 59.4727 29.375C53.9453 33.7109 53.6719 33.8672 52.1484 33.75C49.7656 33.5742 48.2227 31.4062 48.8281 29.082C49.0234 28.3203 49.7852 27.5 55 22.2461C60.332 16.8945 60.9375 16.2305 60.9375 15.6641C60.9375 15.2344 60.7617 14.8633 60.4492 14.5508L59.9805 14.0625H47.9102H35.8398L41.2109 11.1328C44.1602 9.51172 46.8555 8.125 47.168 8.02734C47.5 7.92969 55.1953 7.83203 64.5117 7.83203L81.25 7.8125V12.5ZM52.4414 20.3125L49.3164 23.4375H29.9609C11.0742 23.4375 10.6055 23.4375 10.2734 23.0664C9.14062 21.8164 9.14062 18.8086 10.2734 17.5586C10.6055 17.1875 11.1133 17.1875 33.0859 17.1875H55.5664L52.4414 20.3125ZM46.0938 27.5195C45.5078 29.0234 45.4297 30.2344 45.7812 31.6602C46.6211 34.9609 49.5703 37.1094 52.9297 36.875C54.8438 36.7383 55.8789 36.1523 60.1367 32.832C62.2266 31.2109 63.9648 29.9023 64.0039 29.9414C64.043 30 62.6953 34.668 60.9961 40.3516L57.9102 50.6836L57.8516 72.9883L57.8125 95.3125H32.0312H6.25V73.4766V51.6602L9.47266 40.7227C11.25 34.707 12.9297 29.0625 13.2031 28.1641L13.6914 26.5625H30.0586H46.4453L46.0938 27.5195ZM70.3711 41.3477L73.4375 51.8555V72.4609V93.0664L71.0938 90.7227L68.75 88.3789V71.2305V54.082L68.2617 53.6133C67.6367 52.9688 66.7383 52.9688 66.1133 53.6133L65.625 54.082V71.2305V88.3789L63.2812 90.7227L60.9375 93.0664V72.3633V51.6797L64.0039 41.2695C65.7031 35.5469 67.1289 30.8594 67.1875 30.8594C67.2461 30.8594 68.6719 35.5859 70.3711 41.3477ZM69.2383 93.3594L71.1914 95.3125H67.1875H63.1836L65.1367 93.3594C66.2109 92.2852 67.1289 91.4062 67.1875 91.4062C67.2461 91.4062 68.1641 92.2852 69.2383 93.3594Z" fill="#523F38"/>
<path d="M16.1133 50.4883C15.625 50.957 15.625 50.9961 15.625 54.5898V58.2031L17.1875 61.3086L18.7305 64.4141L18.0469 73.75C17.6758 78.9062 17.4414 83.3594 17.5 83.6914C17.8125 85.1953 18.8281 86.4258 20.3125 87.0898C21.582 87.6758 25.293 87.6758 26.5625 87.0898C28.0469 86.4258 29.0625 85.1953 29.375 83.6914C29.4336 83.3594 29.1992 78.9062 28.8281 73.75L28.1445 64.4141L29.6875 61.3086L31.25 58.2031V54.5898C31.25 50.9961 31.25 50.957 30.7617 50.4883C30.1367 49.8437 29.2383 49.8437 28.6133 50.4883C28.1445 50.9375 28.125 51.0547 28.125 53.6133V56.25H26.5625H25V53.6133C25 51.0547 24.9805 50.9375 24.5117 50.4883C24.2188 50.1758 23.8086 50 23.4375 50C23.0664 50 22.6562 50.1758 22.3633 50.4883C21.8945 50.9375 21.875 51.0547 21.875 53.6133V56.25H20.3125H18.75V53.6133C18.75 51.0547 18.7305 50.9375 18.2617 50.4883C17.9688 50.1758 17.5586 50 17.1875 50C16.8164 50 16.4062 50.1758 16.1133 50.4883ZM26.3672 60.9375L25.5859 62.5H23.4375H21.2891L20.5078 60.9375L19.7266 59.375H23.4375H27.1484L26.3672 60.9375ZM25.7422 74.3164C26.3867 83.5937 26.3867 83.7305 25.4492 84.1602C24.8438 84.4336 22.0312 84.4336 21.4258 84.1602C20.4883 83.7305 20.4883 83.5937 21.1328 74.3164L21.7578 65.625H23.4375H25.1172L25.7422 74.3164Z" fill="#523F38"/>
<path d="M41.9336 50.2148C38.6719 50.9766 35.8594 54.4336 34.2969 59.5703C33.2617 63.0273 32.5977 67.207 32.9883 67.9492C33.125 68.1836 33.8281 68.6719 34.5703 69.043C35.4492 69.4727 35.9375 69.8438 35.9375 70.0586C35.9375 70.2344 35.6641 73.0273 35.332 76.25C35 79.4922 34.7656 82.6367 34.8047 83.2422C34.9024 84.707 35.7031 86.0156 36.9922 86.8164C37.9492 87.4023 37.9883 87.4023 40.625 87.4023C43.2617 87.4023 43.3008 87.4023 44.2578 86.8164C45.5469 86.0156 46.3477 84.707 46.4453 83.2422C46.4844 82.6367 46.25 79.4922 45.918 76.25C45.332 70.5469 45.3125 70.0977 45.3125 60.6641V50.957L44.8242 50.4883C44.3164 49.9609 43.3789 49.8828 41.9336 50.2148ZM42.1875 61.1328V68.75H40.6641C39.1602 68.75 39.1406 68.75 38.9258 68.1641C38.7695 67.7344 38.3789 67.4414 37.4219 66.9531C35.957 66.2305 35.9766 66.3086 36.4453 63.8477C37.1289 60.2734 38.5352 56.7773 40 55.0781C40.6445 54.3164 41.6797 53.5156 42.0508 53.5156C42.1289 53.5156 42.1875 56.9336 42.1875 61.1328ZM42.3828 72.1094C42.3828 72.2461 42.5977 74.5117 42.8711 77.1484C43.4766 83.1641 43.4766 83.3008 42.8711 83.8867C42.4414 84.3359 42.2461 84.375 40.625 84.375C39.0039 84.375 38.8086 84.3359 38.3789 83.8867C37.7734 83.3008 37.7734 83.1641 38.3789 77.1484C38.6524 74.5117 38.8672 72.2461 38.8672 72.1094C38.8672 71.9336 39.3555 71.875 40.625 71.875C41.8945 71.875 42.3828 71.9336 42.3828 72.1094Z" fill="#523F38"/>
</svg>
