<svg width="31" height="31" viewBox="0 0 31 31" fill="none" xmlns="http://www.w3.org/2000/svg">
<g clip-path="url(#clip0_23_9)">
<path d="M15.5956 4.24812H15.7625C17.3038 4.25375 25.1131 4.31 27.2188 4.87625C27.8553 5.04906 28.4353 5.38592 28.9009 5.85314C29.3665 6.32036 29.7013 6.90159 29.8719 7.53875C30.0613 8.25125 30.1944 9.19437 30.2844 10.1675L30.3031 10.3625L30.3444 10.85L30.3594 11.045C30.4813 12.7587 30.4963 14.3637 30.4981 14.7144V14.855C30.4963 15.2188 30.4794 16.9325 30.3444 18.7175L30.3294 18.9144L30.3125 19.1094C30.2188 20.1819 30.08 21.2469 29.8719 22.0306C29.7013 22.6678 29.3665 23.249 28.9009 23.7162C28.4353 24.1835 27.8553 24.5203 27.2188 24.6931C25.0438 25.2781 16.7769 25.3194 15.6313 25.3213H15.365C14.7856 25.3213 12.3894 25.31 9.87688 25.2238L9.55813 25.2125L9.395 25.205L9.07438 25.1919L8.75375 25.1788C6.6725 25.0869 4.69063 24.9388 3.7775 24.6913C3.14118 24.5186 2.56128 24.182 2.09572 23.7152C1.63016 23.2483 1.29523 22.6674 1.12438 22.0306C0.91625 21.2488 0.7775 20.1819 0.68375 19.1094L0.66875 18.9125L0.65375 18.7175C0.560681 17.447 0.509404 16.1738 0.5 14.9L0.5 14.6694C0.50375 14.2662 0.51875 12.8731 0.62 11.3356L0.633125 11.1425L0.63875 11.045L0.65375 10.85L0.695 10.3625L0.71375 10.1675C0.80375 9.19437 0.936875 8.24937 1.12625 7.53875C1.29682 6.90159 1.63162 6.32036 2.0972 5.85314C2.56278 5.38592 3.14283 5.04906 3.77938 4.87625C4.6925 4.6325 6.67438 4.4825 8.75563 4.38875L9.07438 4.37562L9.39688 4.36437L9.55813 4.35875L9.87875 4.34562C11.6632 4.28825 13.4484 4.25638 15.2338 4.25L15.5956 4.24812ZM12.5 10.2669V19.3006L20.2944 14.7856L12.5 10.2669Z" fill="#EEF5DB"/>
</g>
<defs>
<clipPath id="clip0_23_9">
<rect width="30" height="30" fill="white" transform="translate(0.5 0.5)"/>
</clipPath>
</defs>
</svg>
